<svg fill="none" height="24" viewBox="0 0 24 24" width="24" xmlns="http://www.w3.org/2000/svg"><g stroke="#e2e2e2" stroke-width=".3"><rect height="2.3" rx=".65" width="1.3" x="11.85" y=".85"/><path d="m19.8439 3.60516h1.7v2.7h-1.7z" transform="matrix(.68481806 .72871409 -.72871409 .68481806 8.88157 -13.324248)"/><path d="m19.901 1.76758h4.3v1.3h-4.3z" transform="matrix(.68481806 .72871409 -.72871409 .68481806 7.560496 -13.94503)"/></g><circle cx="12" cy="12" fill="#0a1018" r="10"/><path d="m21.4155 15.3411c-2.8231 2.0084-6.526 2.2315-9.5385.6589m-9.29255-7.34111c2.82994-2.01323 6.54399-2.23251 9.56035-.6474m3.2289 6.11281c2.8867-1.8193 4.5582-5.15017 4.2273-8.61208m-11.01916 4.39149c-2.85953 1.82539-4.51225 5.13989-4.18306 8.58409m11.12812-8.3508c-.133-3.40849-2.1819-6.52016-5.3448-7.96478m-1.70648 11.75338c.1555 3.384 2.19868 6.4664 5.34208 7.9022m5.2533-16.89887c3.9053 3.90525 3.9053 10.23687 0 14.14207-3.9052 3.9053-10.23684 3.9053-14.14207 0-3.90524-3.9052-3.90524-10.23684 0-14.14207 3.90525-3.90524 10.23687-3.90524 14.14207 0zm-4.2426 4.24264c1.5621 1.56213 1.5621 4.09473 0 5.65683s-4.0947 1.5621-5.65683 0c-1.56209-1.5621-1.56209-4.0947 0-5.65683 1.56213-1.56209 4.09473-1.56209 5.65683 0z" stroke="#e2e2e2" stroke-linecap="round" stroke-linejoin="round" stroke-width=".5"/></svg>