<svg fill="none" height="26" viewBox="0 0 26 26" width="26" xmlns="http://www.w3.org/2000/svg"><g stroke="#e2e2e2" stroke-linecap="round" stroke-linejoin="round" stroke-width=".5"><path d="m13 25.0001c6.6273 0 11.9999-5.3725 11.9999-11.9999 0-6.62739-5.3726-11.99996-11.9999-11.99996-6.62744 0-12 5.37257-12 11.99996 0 6.6274 5.37256 11.9999 12 11.9999z"/><path d="m18.9999 19c3.3137-3.3137 3.3137-8.6863 0-11.99998-3.3137-3.31369-8.6862-3.31369-11.99993.00001-3.31369 3.31367-3.31369 8.68627 0 11.99997 3.31373 3.3137 8.68623 3.3137 11.99993 0z"/><path d="m17.7543 5.9707v4.2847 5.4891"/><path d="m9.28772 5.36816 3.71208 2.14284 4.7545 2.7445"/><path d="m4.53699 12.3981 3.70925-2.1419 4.75356-2.74448"/><path d="m8.24634 20.0306v-4.2857-5.489"/><path d="m8.24622 15.7451 4.75448 2.7445 3.7111 2.1438"/><path d="m21.4626 13.6035-3.7083 2.141-4.7536 2.7445"/></g></svg>