<svg fill="none" height="26" viewBox="0 0 20 26" width="20" xmlns="http://www.w3.org/2000/svg"><g stroke="#3d3d3d" stroke-linecap="round" stroke-linejoin="round" stroke-width=".5"><path d="m14.8146 6.13086c.4806 0 .9202.26916 1.1391.69666.7749 1.5144.7749 3.30818 0 4.82258-.2189.4275-.6585.6967-1.1391.6967h-9.76258c-.48058 0-.92019-.2692-1.13906-.6967-.7749-1.5144-.7749-3.30818 0-4.82258.21887-.4275.65848-.69666 1.13906-.69666z"/><path d="m16.1202 7.18555h-12.37411"/><path d="m16.1202 11.291h-12.37411"/><path d="m14.1096 12.3457v1.4324"/><path d="m5.75708 12.3457v1.4324"/><path d="m6.98556 24.3054-.54299-.0382c-.61936-.0428-1.12695-.5103-1.22195-1.1241l-1.16328-7.4836c-.07358-.4712.06333-.9499.37255-1.3132.31014-.3614.76279-.5709 1.23965-.5709h8.52856c.4768 0 .9285.2086 1.2396.5709.3102.3623.4461.842.3726 1.3132l-1.1642 7.4836c-.096.6138-.6036 1.0804-1.2229 1.1241l-.5421.0382"/><path d="m12.8652 20.7422c.1518 0 .2962.067.3949.1825.0987.1165.1406.2692.1155.4192l-.4834 2.9086c-.0717.4312-.4452.7479-.882.7479h-4.15485c-.43681 0-.81028-.3167-.882-.7479l-.48338-2.9086c-.02515-.15.0177-.3037.11549-.4192.09779-.1164.24309-.1825.3949-.1825z"/><path d="m12.5552 20.7412v-6.9639"/><path d="m7.31152 20.7412v-6.9639"/></g><path d="m0 4.62737 1.13867-.19177-.735411-.89023zm.2553-.2109.063689.07709zm19.2498.2109-.4118-1.07878-.7283.89603zm-19.186111-.13381c5.340731-4.4119102 12.985711-4.5134904 18.427411-.35411l.1215-.1589c-5.5153-4.215595-13.26343-4.112674-18.676288.35882z" fill="#3d3d3d"/></svg>