<svg fill="none" height="21" viewBox="0 0 22 21" width="22" xmlns="http://www.w3.org/2000/svg"><g stroke="#3d3d3d" stroke-linecap="round" stroke-linejoin="round" stroke-width=".5"><path d="m1 7.37722c0-.35032 0-.52548.01462-.67301.14098-1.42294 1.26665-2.54861 2.68959-2.68959.14753-.01462.33215-.01462.70137-.01462.14227 0 .21341 0 .27381-.00366.77122-.04671 1.44656-.53346 1.73475-1.25034.02257-.05614.04367-.11943.08586-.246s.06329-.18986.08586-.246c.28819-.71688.96353-1.20363 1.73475-1.25034.0604-.00366.12711-.00366.26053-.00366h4.83776c.1334 0 .2001 0 .2605.00366.7712.04671 1.4466.53346 1.7347 1.25034.0226.05614.0437.11943.0859.246s.0633.18986.0859.246c.2881.71688.9635 1.20363 1.7347 1.25034.0604.00366.1315.00366.2738.00366.3692 0 .5539 0 .7014.01462 1.4229.14098 2.5486 1.26665 2.6896 2.68959.0146.14753.0146.32269.0146.67301v7.82278c0 1.6802 0 2.5202-.327 3.162-.2876.5645-.7465 1.0234-1.311 1.311-.6418.327-1.4818.327-3.162.327h-10.4c-1.68016 0-2.52024 0-3.16197-.327-.56449-.2876-1.02343-.7465-1.31105-1.311-.32698-.6418-.32698-1.4818-.32698-3.162z"/><path d="m11 15.5c2.2091 0 4-1.7909 4-4 0-2.20914-1.7909-4-4-4-2.20914 0-4 1.79086-4 4 0 2.2091 1.79086 4 4 4z"/></g></svg>