<svg fill="none" height="26" viewBox="0 0 26 26" width="26" xmlns="http://www.w3.org/2000/svg"><g stroke="#e2e2e2" stroke-linecap="round" stroke-linejoin="round" stroke-width=".5"><path d="m10.1251 10.1238-6.23911-6.23903"/><path d="m25.0011 25.0001-14.8761-14.8761"/><path d="m7.63878 15.3048c-5.18632-.3764-6.31326 5.0358-6.31326 5.0358-1.653868-11.04795 3.53246-15.48262 3.53246-15.48262m2.7808 10.44682c-4.0212-4.0201-2.7808-10.44682-2.7808-10.44682m2.7808 10.44682c.05346.0535-.35782-2.315 2.45462-5.1503.0098-.0098.0207-.0196.0305-.0306.0099-.0098.0197-.0207.0306-.0305 2.8353-2.81244 5.2038-2.40116 5.1503-2.45462m-10.44682-2.7808s6.42562-1.2404 10.44682 2.7808m-10.44682-2.7808s4.43467-5.186328 15.48262-3.53246c0 0-5.4111 1.12694-5.0358 6.31326"/><path d="m1.32544 20.3393c1.95387-1.1269 3.00664.6011 3.00664.6011 1.80441-1.6539 4.53939-1.2775 4.53939-1.2775.40583-1.8786 1.69863-4.5841 5.45253-5.3401.756-3.754 3.4615-5.04781 5.3401-5.45255 0 0-.3752-2.73499 1.2775-4.53941 0 0-1.7291-1.05166-.6011-3.00662"/><path d="m19.6642 8.86903s-1.4335-1.57204-4.2863-2.80262"/><path d="m8.8705 19.6633s-1.57205-1.4324-2.80263-4.2863"/><path d="m5.97285 4.72266c-.36329.03382-.73311.07854-1.11057.13309 0 .00109-.00328.00109-.00437.00109"/><path d="m4.85803 4.85656s0 0 .00219-.00109h.00109"/><path d="m20.9429 4.33099s-1.9725-.24982-4.6944-.37201"/><path d="m4.33222 20.9424s-.24983-1.9735-.37201-4.6944"/></g></svg>