<svg fill="none" height="24" viewBox="0 0 24 24" width="24" xmlns="http://www.w3.org/2000/svg" xmlns:xlink="http://www.w3.org/1999/xlink"><clipPath id="a"><path d="m0 0h24v24h-24z"/></clipPath><g clip-path="url(#a)" fill="#fff"><path clip-rule="evenodd" d="m12.0003.5c-2.84881.001478-5.60417 1.01046-7.77343 2.84652-2.16926 1.83607-3.610967 4.37949-4.067325 7.17548-.456359 2.796.102382 5.6622 1.576325 8.0862 1.47394 2.4239 3.76697 4.2476 6.46906 5.1448.59612.1106.82067-.2589.82067-.573 0-.3142-.01193-1.225-.0159-2.2208-3.3383.7212-4.04371-1.4087-4.04371-1.4087-.54447-1.3831-1.33135-1.7466-1.33135-1.7466-1.08893-.7389.08147-.7251.08147-.7251 1.20616.0849 1.84005 1.2309 1.84005 1.2309 1.06905 1.8236 2.80773 1.2961 3.49129.9879.1073-.7725.41928-1.2981.76305-1.5964-2.66667-.3004-5.46846-1.3238-5.46846-5.8958-.01653-1.1857.42598-2.33235 1.23597-3.20272-.1232-.30032-.53453-1.51345.11723-3.16125 0 0 1.00746-.32007 3.30056 1.22301 1.9669-.53482 4.0421-.53482 6.0089 0 2.2911-1.54308 3.2966-1.22301 3.2966-1.22301.6538 1.64385.2424 2.85698.1192 3.16125.8126.87051 1.256 2.01912 1.238 3.20672 0 4.5818-2.8078 5.5914-5.4784 5.8858.4292.3715.8127 1.0966.8127 2.2109 0 1.5965-.0139 2.8807-.0139 3.2739 0 .3181.2166.6895.8246.573 2.7024-.8973 4.9957-2.7213 6.4696-5.1457 1.4739-2.4243 2.0324-5.291 1.5755-8.0872-.4569-2.7963-1.8993-5.33975-4.0693-7.17549-2.1699-1.83575-4.926-2.844069-7.7751-2.84461z" fill-rule="evenodd"/><path d="m8.02783 19.9753c0 .0968-.11127.1798-.25434.1817-.14307.002-.26031-.077-.26031-.1738s.11127-.1798.25434-.1818.26031.0751.26031.1739z"/><path d="m8.9419 19.8231c.01788.0968-.08148.1976-.22455.2213s-.26825-.0336-.28614-.1284c-.01788-.0948.08545-.1976.22455-.2233.13909-.0256.26825.0336.28614.1304z"/><path d="m7.04617 19.9081c-.0298.0928-.16493.1343-.30005.0948s-.22454-.1501-.19871-.245c.02584-.0948.16295-.1383.30006-.0948.1371.0435.22454.1482.1987.245z"/><path d="m6.14605 19.5208c-.06557.0731-.1987.0534-.30799-.0454s-.13513-.2331-.06956-.3043c.06558-.0711.19871-.0513.31198.0455.11326.0968.13512.2331.06557.3042z"/><path d="m5.50425 18.857c-.07353.0513-.19872 0-.26827-.1028-.01923-.0184-.03452-.0405-.04497-.0649-.01045-.0245-.01584-.0508-.01584-.0773 0-.0266.00539-.0529.01584-.0773.01045-.0245.02574-.0466.04497-.065.07352-.0494.19872 0 .26827.1008.06954.1007.07153.2351 0 .2865z"/><path d="m5.03129 18.1714c-.04115.0206-.08823.0264-.13318.0163s-.08497-.0354-.11322-.0716c-.07749-.083-.0934-.1976-.03379-.249.05962-.0514.16693-.0276.24442.0553.0775.083.09538.1976.03577.249z"/><path d="m4.54444 17.632c-.02584.0593-.12122.0771-.19871.0356-.0775-.0415-.13512-.1186-.1073-.1798.02782-.0613.12121-.0771.19871-.0356.07749.0415.1371.1205.1073.1798z"/></g></svg>